<svg width="40" height="40" viewBox="0 0 40 40" fill="none" xmlns="http://www.w3.org/2000/svg">
<path d="M38.1616 14.7175H29.1909L22.8848 2.55836C22.6587 2.12242 22.2764 1.80062 21.8083 1.65219C21.3401 1.50375 20.8423 1.54656 20.4063 1.77265C20.2548 1.85125 20.1191 1.94844 20 2.05961C19.8808 1.94851 19.7452 1.85125 19.5936 1.77265C19.1577 1.54656 18.6598 1.50383 18.1916 1.65219C17.7235 1.80055 17.3412 2.12242 17.1152 2.55836L10.4681 15.3749C10.242 15.8109 10.1992 16.3088 10.3477 16.7769C10.3983 16.9366 10.4706 17.0856 10.5594 17.2225H1.83844C1.47086 17.2225 1.17188 16.9235 1.17188 16.5559C1.17188 16.1884 1.47094 15.8894 1.83844 15.8894H8.51852C8.84211 15.8894 9.10445 15.6271 9.10445 15.3034C9.10445 14.9798 8.84211 14.7175 8.51852 14.7175H1.83844C0.824766 14.7175 0 15.5423 0 16.5559C0 17.3966 0.567344 18.1068 1.33914 18.3249L4.73281 36.4242C4.95117 37.5892 5.97 38.4347 7.15531 38.4347H32.8448C34.0301 38.4347 35.0488 37.5892 35.2673 36.4242L38.6609 18.3248C39.4327 18.1068 40 17.3966 40 16.5559C40 15.5422 39.1752 14.7175 38.1616 14.7175ZM20.9459 2.81305C21.1039 2.73109 21.2845 2.71555 21.4541 2.76937C21.6238 2.82312 21.7625 2.93984 21.8445 3.09789L28.4915 15.9145C28.5734 16.0726 28.589 16.2531 28.5352 16.4228C28.4814 16.5926 28.3647 16.7312 28.2066 16.8131C28.0486 16.8952 27.868 16.9106 27.6983 16.8569C27.5285 16.8031 27.3899 16.6864 27.308 16.5284L20.661 3.71164C20.4918 3.38539 20.6196 2.98226 20.9459 2.81305ZM28.7484 18.3945L28.1939 24.1115H20.5859V18.3945H28.7484ZM20 4.98242L26.2678 17.0677C26.2955 17.1212 26.3256 17.1727 26.3579 17.2225H13.6421C13.6744 17.1727 13.7045 17.1212 13.7322 17.0678L14.3434 15.8895H23.2617C23.5853 15.8895 23.8477 15.6272 23.8477 15.3035C23.8477 14.9799 23.5853 14.7176 23.2617 14.7176H14.9511L20 4.98242ZM11.5084 15.9145L18.1555 3.09781C18.2375 2.93976 18.3761 2.82305 18.5459 2.7693C18.6123 2.7482 18.6803 2.73781 18.748 2.73781C18.8534 2.73781 18.958 2.76312 19.0541 2.81297C19.3804 2.98226 19.5082 3.38531 19.339 3.71156L12.6919 16.5282C12.6099 16.6863 12.4713 16.803 12.3016 16.8567C12.132 16.9105 11.9514 16.895 11.7933 16.813C11.6352 16.731 11.5185 16.5924 11.4648 16.4227C11.4109 16.2531 11.4265 16.0726 11.5084 15.9145ZM2.54445 18.3945H10.0743L10.6287 24.1115H3.61641L2.54445 18.3945ZM3.83617 25.2833H10.7424L11.2969 31.0002H4.90805L3.83617 25.2833ZM7.15523 37.2629C6.53352 37.2629 5.99914 36.8194 5.88461 36.2083L5.12781 32.1721H11.4105L11.9042 37.2629H7.15523ZM19.4141 37.2629H13.0815L12.5878 32.1721H19.4141V37.2629ZM19.4141 31.0002H12.4741L11.9197 25.2833H19.4141V31.0002ZM19.4141 24.1115H11.8061L11.2516 18.3945H19.4141V24.1115ZM26.9185 37.2629H20.5859V32.1721H27.4122L26.9185 37.2629ZM27.5259 31.0003H20.5859V25.2834H28.0803L27.5259 31.0003ZM34.1154 36.2083C34.0009 36.8194 33.4664 37.2629 32.8447 37.2629H28.0958L28.5895 32.1721H34.8722L34.1154 36.2083ZM35.092 31.0003H28.7032L29.2577 25.2834H36.1639L35.092 31.0003ZM36.3836 24.1114H29.3713L29.9258 18.3944H37.4555L36.3836 24.1114ZM38.1616 17.2226H38.152C38.1516 17.2226 38.1513 17.2226 38.1509 17.2226H29.4406C29.5294 17.0856 29.6016 16.9367 29.6523 16.777C29.7448 16.4853 29.763 16.182 29.7089 15.8895H38.1616C38.5291 15.8895 38.8281 16.1885 38.8281 16.556C38.8281 16.9235 38.5291 17.2226 38.1616 17.2226Z" fill="#688800"/>
</svg>
